{"title":"Mundos Opostos 2014 HD - [jcmoc]","uid":13235817,"size":1344625131,"categoryP":"video","categoryS":"movies","magnet":"?xt=urn:btih:66ae089d8bb7e8c654ccb4066e6b301f6c0069b1&amp;dn=Mundos+Opostos+2014+HD+-+%5Bjcmoc%5D&amp;tr=udp%3A%2F%2Ftracker.leechers-paradise.org%3A6969&amp;tr=udp%3A%2F%2Fzer0day.ch%3A1337&amp;tr=udp%3A%2F%2Fopen.demonii.com%3A1337&amp;tr=udp%3A%2F%2Ftracker.coppersurfer.tk%3A6969&amp;tr=udp%3A%2F%2Fexodus.desync.com%3A6969","seeders":0,"leechers":0,"uploader":"jcmoc","files":1,"time":1453002713,"description":"General\r\nFormat                         : MPEG-4\r\nFormat profile                 : Base Media / Version 2\r\nCodec ID                       : mp42\r\nFile size                      : 1.25 GiB\r\nDuration                       : 1h 48mn\r\nOverall bit rate mode          : Variable\r\nOverall bit rate               : 1 658 Kbps\r\nEncoded date                   : UTC 2015-08-02 07:42:05\r\nTagged date                    : UTC 2015-08-02 07:42:05\r\ngsst                           : 0\r\ngstd                           : 6486285\r\ngssd                           : BBB2C0045\r\ngshh                           : r2---sn-8p5hvj-hvje.googlevideo.com\r\n\r\nVideo\r\nID                             : 1\r\nFormat                         : AVC\r\nFormat/Info                    : Advanced Video Codec\r\nFormat profile                 :   \r\nFormat settings, CABAC         : Yes\r\nFormat settings, ReFrames      : 1 frame\r\nCodec ID                       : avc1\r\nCodec ID/Info                  : Advanced Video Coding\r\nDuration                       : 1h 48mn\r\nBit rate                       : 1 464 Kbps\r\nMaximum bit rate               : 6 702 Kbps\r\nWidth                          : 1 280 pixels\r\nHeight                         : 544 pixels\r\nDisplay aspect ratio           : 2.35:1\r\nFrame rate mode                : Constant\r\nFrame rate                     : 23.976 fps\r\nColor space                    : YUV\r\nChroma subsampling             : 4:2:0\r\nBit depth                      : 8 bits\r\nScan type                      : Progressive\r\nBits/(Pixel*Frame)             : 0.088\r\nStream size                    : 1.11 GiB (88%)\r\nTagged date                    : UTC 2015-08-02 07:44:10\r\n\r\nAudio\r\nID                             : 2\r\nFormat                         : AAC\r\nFormat/Info                    : Advanced Audio Codec\r\nFormat profile                 : LC\r\nCodec ID                       : 40\r\nDuration                       : 1h 48mn\r\nBit rate mode                  : Variable\r\nBit rate                       : 192 Kbps\r\nMaximum bit rate               : 201 Kbps\r\nChannel count                  : 2 channels\r\nChannel positions              : Front: L R\r\nSampling rate                  : 44.1 KHz\r\nCompression mode               : Lossy\r\nStream size                    : 148 MiB (12%)\r\nTitle                          : IsoMedia File Produced by Google, 5-11-2011\r\nLanguage                       : Portuguese\r\nEncoded date                   : UTC 2015-08-02 07:43:17\r\nTagged date                    : UTC 2015-08-02 07:44:10","torrent":{"xt":"urn:btih:66ae089d8bb7e8c654ccb4066e6b301f6c0069b1","amp;dn":"Mundos+Opostos+2014+HD+-+%5Bjcmoc%5D","amp;tr":["udp%3A%2F%2Ftracker.leechers-paradise.org%3A6969","udp%3A%2F%2Fzer0day.ch%3A1337","udp%3A%2F%2Fopen.demonii.com%3A1337","udp%3A%2F%2Ftracker.coppersurfer.tk%3A6969","udp%3A%2F%2Fexodus.desync.com%3A6969"],"infoHash":"66ae089d8bb7e8c654ccb4066e6b301f6c0069b1","infoHashBuffer":{"type":"Buffer","data":[102,174,8,157,139,183,232,198,84,204,180,6,110,107,48,31,108,0,105,177]},"announce":[],"urlList":[]}}